<svg xmlns="http://www.w3.org/2000/svg" viewBox="0 0 747 549.21"><defs><style>.cls-1{fill:#fff;}.cls-2{fill:#004867;}.cls-3{fill:#e55538;}</style></defs><title>logo</title><g id="Layer_2" data-name="Layer 2"><g id="Layer_1-2" data-name="Layer 1"><polygon class="cls-1" points="592.68 19.86 592.65 19.47 592.3 18.88 591.5 18.01 590.31 16.93 589.74 16.37 585.45 11.57 584.93 11.01 582.88 9.06 582.37 8.5 580.58 6.27 580.07 5.71 578.08 3.63 576.13 1.22 575.65 0.84 575.36 0.59 575.07 0.56 574.72 0.73 574.24 1.19 572.48 2.89 572 3.42 570.97 4.39 570.21 5.23 569.73 5.82 568.12 7.77 567.64 8.36 565.82 10.07 563.1 13.03 561.3 14.84 560.82 15.43 559.2 17.07 558.16 18.2 556.65 19.57 556.61 20.23 575.54 20.23 575.54 20.23 582.25 20.23 582.25 20.23 592.48 20.23 592.52 20.17 592.68 19.86 592.68 19.86"/><polygon class="cls-2" points="187.04 0 187.04 376.88 547.32 376.88 547.32 0 187.04 0 187.04 0"/><polygon class="cls-1" points="345.32 315.04 344.53 313.62 343.74 312.83 342.33 310.94 338.07 306.06 336.5 304.17 333.98 301.02 332.4 299.28 331.77 298.34 330.04 296.76 328.3 295.66 326.88 295.34 325.94 295.66 324.36 296.76 322.31 298.34 319.32 300.23 317.27 301.33 314.91 302.44 312.39 303.54 308.45 304.96 306.08 305.74 304.82 306.06 302.62 306.53 298.99 306.53 295.21 306.37 292.69 305.9 289.23 304.96 286.86 304.01 283.71 302.44 281.66 301.02 278.67 298.5 276.94 296.61 274.57 293.14 273.31 290.77 272.21 288.1 271.42 285.73 270.63 282.11 270.47 279.75 270.32 275.81 270.32 273.28 270.63 268.56 270.95 266.19 271.42 263.51 272.21 260.99 273.15 258.63 274.26 256.43 275.36 254.38 276.78 252.17 278.67 250.12 279.77 249.18 281.98 247.6 285.13 246.03 287.18 245.24 289.54 244.29 293.01 243.19 295.53 242.56 298.99 242.24 301.52 242.24 305.45 242.56 307.82 243.03 311.29 243.98 313.49 244.76 316.96 246.34 319.01 247.44 322 249.65 323.73 250.59 324.84 250.91 325.94 250.75 327.04 250.28 328.46 249.02 329.25 248.23 330.98 246.34 333.66 243.19 335.39 241.46 337.13 240.04 338.86 238.46 340.59 236.73 342.01 235 342.96 233.74 343.11 232.47 342.8 231.21 341.7 230.11 340.75 229.32 339.02 228.06 334.13 224.6 330.04 221.76 327.83 220.5 324.36 218.45 322.16 217.5 316.64 215.93 313.02 215.3 310.81 214.83 304.98 214.04 301.52 213.88 299.15 213.72 295.69 214.04 290.8 214.35 288.12 214.67 285.44 215.14 280.09 216.4 277.56 217.19 274.89 218.13 270.16 220.34 267.95 221.6 265.9 222.86 260.86 226.33 258.97 227.91 256.92 229.64 255.03 231.37 253.14 233.42 251.41 235.63 249.83 237.67 248.41 239.88 247 242.24 245.74 244.61 244.63 246.97 243.53 249.18 242.43 252.33 241.64 254.53 240.85 256.9 240.22 259.26 239.59 262.73 239.12 265.09 238.96 267.61 238.65 272.97 238.65 275.65 238.49 278.17 238.33 280.53 238.49 284.16 238.8 286.52 240.38 291.25 241.48 294.4 243.84 301.02 245.42 304.33 246.52 306.53 247.78 308.74 249.2 310.94 250.94 313.31 252.67 315.36 254.56 317.25 258.66 320.71 260.86 322.13 262.91 323.55 264.8 324.97 267.8 326.7 269.84 327.65 273.31 328.91 280.4 330.8 282.76 331.58 285.44 332.21 288.12 332.69 290.8 333 293.48 333.16 301.67 333.16 305.61 332.85 308.45 332.69 313.96 332.06 317.9 331.27 320.58 330.8 323.26 330.01 325.62 329.22 329.25 327.49 331.3 326.38 334.45 324.65 336.34 323.39 339.33 321.19 341.22 319.77 344.06 317.25 345.32 315.99 345.32 315.04 345.32 315.04"/><path class="cls-1" d="M355.88,149.6l-1.26-1.73-8.67-9-1.26-1.58v-1.1l.63-1.57,1.58-3.31.94-2.37.79-2.52.94-2.52.95-2.68.79-2.36.79-3.47.31-2.36.32-3.94V101.7l.15-2.67V96.19l-.15-2.68L352.25,91l-.63-2.68L351,85.79l-.79-2.68-.94-2.36-1.1-3.31-1-2.21-1.1-2.36-1.42-2.21-1.42-2-1.73-2.2-1.89-2-3.47-4.1-1.89-2-1.89-1.89-2-1.57L325,52.07l-2.36-.79-2.05-.94-2.05-1.11-2.2-.94-5.67-2-2.21-.63L306.09,45l-3.63-.63-2.52-.47-2.52-.16h-2.36l-3.63-.16h-2.52l-2.68.16-2.68.31-7.4,1.11-2.52.47-3.47.79-5,1.57-2.37,1L256,52.07l-2.21,1.1-5.35,3.47-2,1.57L241.8,62,239,65.46l-3.31,5.36-2.52,4.41L232,77.6l-1.1,2.67-1,2.53-.79,2.67-.63,2.68-.47,2.68-.32,2.52V97l.16,2.36.16,2.52v2.36l-.16,2.37-.16,2.52-.15,3.62.15,2.37.95,4.72,1.1,3.63.79,2.36.95,2,1.1,2.21,1.73,3.15,1.26,2.2,1.26,2.37,1.26,2.05,2.05,2.83,1.58,1.74,2.68,2.52,2,1.57,6.15,4.41,4.73,2.84,2.36,1.26,2.68,1.1,5,1.89,2.36.63,3.63.79,4.73,1,2.52.16h2.36l2.36-.16,3.63-.16,2.36-.16h6l1.42-.15,2.68-.16,2.36-.47,2.52-.48,5-1.26,2.37-.47,2.52-.79,2.36-.79,1.89-.31,1.58.94,4.57,4.42,1.73,1.89,4.25,5.2,1.27,1.26,1.26-.16,1.73-1.1,8-7.88L346.9,160l7.87-7.72,1.26-1.41-.15-1.27Zm-70.75-14.81-2.36-.63-3.47-1.1-5.83-2.36-2.21-1.26-3.15-2-1.73-1.89-2.21-3.31L262.91,120l-1.26-3.46-.79-2.37-.78-3.94-.32-2.36-.16-3.63.48-7.09.31-2.36.63-2.68.79-2.36,1.57-3.47,1.26-2.2,2.21-3,1.73-1.89,3.94-3,2.05-1.42,2.37-1.1,2.2-.79,4.57-1.42,2.52-.47,2.68-.16h2.68l3.78.47,2.36.48,3.63,1.1,2.2.94,3.16,1.89,2,1.42,2.68,2.52,1.74,1.74,1.73,2.05,1.26,2.2,2.21,4.1.78,2.36,1.11,3.78.47,2.52.16,3.47v2.52l-.48,4.73-.47,2.52-.79,2.52-.78,2.37L317,120.14l-1.11,2.21-2,3-1.58,1.89-2.84,2.21-2,1.41-5.83,2.53-3.63,1.1-2.36.47-3.94.63h-2.52l-3.94-.79Z"/><path class="cls-1" d="M506.42,266.82l-.47-2.67-.31-2.68-.95-4.73-.79-3.62-.78-2.21L502,248.55l-1.26-2.05L499,243.35l-1.26-2-1.1-2.05-1.26-2.05-2.21-3-1.42-1.89L490,230.58,488.3,229l-2.67-2.52-2.05-1.58-2.05-1.42-5.2-3-2.21-.95-3.31-1.26-2.36-.78-2.36-.63-2.52-.64-2.68-.47-2.68-.63-2.68-.47-2.68-.32-3.78-.15-4.73-.32-5,.32-7.88.94-2.36.47-6,1.11-2.36.63-2.37.79-2.2.78-3.31,1.42-2.21,1.1-2.2,1.27L406.37,224l-4.73,3.15-2.05,1.42-2,1.57-2.67,2.21L393,234.21l-.79,1.26-1.58,2.2-2.2,3.47-1.26,2.36-.64,1.42-1.1,2.52-1.1,3.63-.95,2.52-.78,2.36-.79,2.68-.63,2.68-.48,2.68-.31,2.68-.16,2.83-.16,2.68v2.68l.16,2.68.16,2.36.47,3.47.48,2.36.47,2.52.47,2.37.95,3.31,2.36,7.09,1.26,3.15,1.26,2.05,1.58,2,1.57,1.89,4.26,4.25,1.73,2,1.89,2.05,2.05,1.73,2.05,1.58,2.36,1.41,2.36,1.26L413,326.7l2.68,1.1,2.52.79,8.5,2.84,2.37.63,2.2.47,5.2.63,5.36.32h8.51l2.68-.16,2.68-.47,2.68-.63,2.52-.63,2.68-.79,5-1.58,2.36-.63,3.15-1.26,2.21-.94,2.36-1.26,2.05-1.27,2.84-1.89,1.89-1.41,2-1.58,1.73-1.58,2.52-2.67,1.58-1.74,1.57-2.05,1.42-2,4.25-7.09,1.11-2.21,1.57-3.31.63-2.36.48-2.52.31-2.37.32-3.62.94-4.73.32-2.36.31-3.63.16-2.52-.32-5.36Zm-33.08,11.82L473,281l-.79,3.62-.94,2.36-1.58,3.47-1.42,2.21-2.05,2.52-1.57,1.73-2.52,2.52-1.89,1.42-3.47,2.21-2.21.94-3.46.79-2.52.31-3.94.32-2.68-.16L438,304.8l-2.36-.47-3.31-1.11-2.37-.94L427.48,301l-2.2-1.42-3.15-2.68-1.9-1.89-.94-1.1-1.73-2.21-.79-1.26-1.26-2.21-.63-1.26-.79-2.2-.32-1.11-.63-2.36L413,279.9l-.48-2.52-.15-2.52V272.5l.15-2.37.16-2.2.32-2.21.47-2.2.47-1.11.79-2.36,1.42-3.31.47-1,1.26-2,1.73-2.37,1.74-1.89,2.52-2.2,2.2-1.42,3.63-1.89,2.52-.95,4.1-1.1,2.36-.47,3.47-.16,2.36-.16,5,.32,2.52.47,2.52.79,2.21.94,4.1,2.37,1.73,1.41L465,250l1.58,1.74,2.21,2.83,1.26,2,1.73,3.47.63,2.21.95,4.72.15,2.52.16,2.68v2.68l-.31,3.78Z"/><path class="cls-3" d="M488,75.55l-.32-2.84-.47-2.52-1.57-5.36-1.11-2.52-1.26-2.52-1.57-2.21-2.05-1.89L477.43,54l-2.2-1.58-4.73-2.83L468,48.29l-2.52-1.11-2.68-.94-2.68-.63-2.68-.47L449.07,44l-5.52-.63h-3.62l-2.36.16-3.78.32-2.37.31-.94.16-2.21.47-.94.16-2.53.79-2.52.94-1.1.32-4.73,2.2-1.1.48-1.89.94-.95.63-1.73,1.1-.94.63-1.9,1.58-2.2,2.21-1.89,2.52-1.26,2.36-.48,1.1-.94,1.9-.32,1.1-.78,2.36-.63,3L399,73.81v1L398.81,77v1.26L399,79.8l.48.63.47.32,1.42.31,2.36.47,7.41.48h10.08l2.52-.16,1.1-.16,1.74-.31.94-.16.63-.47.48-.79.47-1.58.79-2.36,1.26-1.73,1.42-1.42,1.89-1.26,2-1,2.21-.94,2.36-.48h2.52l2.53.48,2.2.79,1.74.94,1.73,1.42,1.42,1.89,1.1,2.21.47,2.2-.31,2.36-1.11,2.68-1.57,2.05-.95.95-2.05,1.57-1.1.79-2.52,1.58-2.36,1.26-.95.47L439.93,94l-.94.48-1.9,1.26-.78.78-1.89,1.74-2.05,2.2-1.74,2.21-.47.94-1.1,2-.63,1.11-.95,2.36-.94,2.84-.63,2.67-.32,1.11-.31,2.36v1.1l-.16,1.74.31.94.48.63.94.48,1.89.31,1.42.16,2.68.16,5.67-.32,1.26-.16H447l5.2-.31,1.42-.16,1.73-.31.79-.16.47-.32.48-.63,1.1-4.41,1.26-2.52,1.42-2.21,3.46-3.78,2-1.89,2.05-1.42,6.93-5,2.05-1.42,2.05-1.73,1.89-1.73,1.89-1.89,1.58-2,1.26-2.21.94-2.36.63-2.52.32-2.68V75.55Zm-28.84,68.38-.47-2.52-.79-2.52-1.26-2.21-1.73-2-2-1.74-2.2-1.42-2.37-.78-2.52-.63-2.84-.32h-3l-2.84.47-2.36.63-2.36,1-2.21,1.42-2.05,1.57-1.57,2.05-1.26,2.21-.79,2.52-.47,2.52v2.52l.47,2.52.79,2.52,1.26,2.37,1.57,2L430,157.8l2.21,1.26,2.36,1.1,2.52.79,2.84.32,3,.15,2.84-.31,2.68-.63,2.36-1.11,2.21-1.26,2.05-1.89,1.42-2.2,1.26-2.37.78-2.52.48-2.52.15-2.68Z"/><polygon class="cls-2" points="556.65 376.88 592.68 376.88 592.68 19.57 556.65 19.57 556.65 376.88 556.65 376.88"/><path class="cls-1" d="M183.45,533.46a20.81,20.81,0,0,1-14.22,5.74c-14,0-19.38-9.77-19.46-19.14s5.81-19.63,19.46-19.63a19.38,19.38,0,0,1,13.65,5.33l7.11-6.87a29.17,29.17,0,0,0-20.76-8.64c-20.43,0-30,15-30,29.81s9,29.15,30,29.15c8.16,0,15.67-2.66,21.49-8.4l-7.27-7.35Zm47.48-43.21c-19.54,0-29.07,14.94-29.07,29.81s9.2,29.15,29.07,29.15,28.84-14.62,29-29.24c.16-14.78-9.53-29.72-29-29.72Zm0,9.69c13.33,0,18.66,10.67,18.5,20.2-.16,9.29-5.17,19.3-18.5,19.3s-18.33-9.93-18.57-19.22c-.25-9.53,5.25-20.28,18.57-20.28ZM328.24,548H338.9V491.46H326.71L309,515.77l-17.69-24.31H279.05V548h10.66V506.89l18,24.64h2.1L328.24,507v41Zm43.22-46.52h16c13.57,0,13.65,20,0,20h-16v-20Zm16-10.18c-8.88,0-17.77.08-26.65.08v56.54h10.66V531.28h16c27.71,0,27.63-40,0-40Zm78.8,56.62h11.64l-25.37-56.54H440.89l-25.36,56.54h11.55l4.85-10.66h29.56l4.76,10.66Zm-9-20.59h-21l10.5-24.07,10.5,24.07Zm72.87-.89-27.7-35.06h-8.65v56.54h10.66V509.8L534.12,548v-.08h6.62V491.3H530.08v35.14Zm40-35.06H557.41v.49l21.73,32.71v23.34H589.8V524.58l22.54-32.71v-.49H599.5l-15,23.34-14.38-23.34Z"/><path class="cls-1" d="M29.08,413.93C9.21,413.93-.08,428.71,0,443.49s9,29.32,29.08,29.32c6.38,0,11.79-1.45,16.07-4.2L52,475.39l7.51-7.51-6.7-6.62a32.09,32.09,0,0,0,5.25-18.42c-.25-14.54-9.13-28.91-29-28.91Zm0,9.61c13.33,0,18.09,9.85,18.5,19C48,452.21,41.84,463,29.08,463,16.8,463,10.66,453,10.5,443.73c-.16-9.53,5.25-20.19,18.58-20.19Zm87-8.16v32.39c0,9.69-5,15.59-13.81,15.59S87.6,458,87.6,447.77V415.38H77v32.39c0,17,11.55,25.28,25.12,25.28,14.21,0,24.47-8.56,24.47-25.28V415.38Zm74.67,46H159V448.58h30.61v-9.94H159v-13H190.7V415.3H148.38v56.54H190.7v-10.5Zm62.77-36.75c-4.28-8.73-13.41-11.23-22.21-11.23-10.42.08-21.89,4.85-21.89,16.48,0,12.68,10.66,15.75,22.21,17.12,7.51.81,13.09,3,13.09,8.32,0,6.14-6.3,8.48-13,8.48s-13.41-2.74-15.91-9l-8.88,4.6c4.2,10.34,13.08,13.89,24.63,13.89,12.6,0,23.75-5.41,23.75-18,0-13.49-11-16.56-22.78-18-6.78-.81-12.6-2.18-12.6-7.11,0-4.2,3.8-7.51,11.71-7.51,6.14,0,11.47,3.07,13.41,6.3l8.48-4.36Zm34.68,47.25h10.67V425h17.93V415.3H270.22V425h17.93v46.85Zm55.84,0V415.3H333.41v56.54ZM392,414.17C372.5,414.17,363,429.11,363,444s9.21,29.16,29.08,29.16,28.84-14.62,29-29.24c.16-14.78-9.53-29.72-29-29.72Zm0,9.69c13.33,0,18.66,10.66,18.5,20.19-.16,9.29-5.17,19.31-18.5,19.31s-18.33-9.94-18.58-19.22c-.24-9.54,5.25-20.28,18.58-20.28Zm84.82,26.49-27.7-35.05h-8.65v56.54h10.66V433.72l29.73,38.2v-.08h6.62V415.22H476.86v35.13Zm76.85,21.49h11.63L540,415.3H528.34L503,471.84h11.55l4.85-10.66h29.56l4.77,10.66Zm-9.05-20.6h-21l10.5-24.07,10.5,24.07Zm46.48-3.87h16.32c4.36,0,10.58,2.66,10.58,7.75,0,5.33-6.22,6.78-10.58,6.78H591.14V447.37Zm0-22.38h16.32c6.78,0,8.88,4.36,8.88,6.95,0,3.23-2.18,6.06-8.88,6.06H591.14V425Zm16.32-9.69H580.64v56.54h26.82c11.71,0,21.16-4,21.16-16.64,0-3.55-2.42-10.58-9-12.6,5.25-2.34,7.35-6.54,7.35-10.9,0-11.39-8.32-16.4-19.47-16.4Zm40.46,0v56.54h39.74V462H658.58V415.3Zm99.08,46H715.26V448.58h30.61v-9.94H715.26v-13H747V415.3H704.68v56.54H747v-10.5Z"/></g></g></svg>