<svg xmlns="http://www.w3.org/2000/svg" viewBox="0 0 519 75"><defs><style>.cls-1{fill:#fff;}</style></defs><title>question</title><g id="Layer_2" data-name="Layer 2"><g id="Layer_1-2" data-name="Layer 1"><path class="cls-1" d="M16.65,22.79c-10.58,0-15.52,7.87-15.48,15.74S5.94,54.14,16.65,54.14a15.65,15.65,0,0,0,8.56-2.23l3.65,3.61,4-4L29.29,48a17,17,0,0,0,2.8-9.8c-.13-7.74-4.86-15.4-15.44-15.4Zm0,5.12c7.09,0,9.63,5.25,9.85,10.11.21,5.16-3.06,10.88-9.85,10.88-6.54,0-9.8-5.29-9.89-10.24s2.79-10.75,9.89-10.75Zm42.5-4.34V40.81c0,5.16-2.66,8.3-7.35,8.3S44,46.23,44,40.81V23.57H38.39V40.81c0,9.07,6.14,13.46,13.37,13.46,7.57,0,13-4.56,13-13.46V23.57ZM95.12,48H78.22v-6.8h16.3V36H78.22V29h16.9v-5.5H72.59v30.1H95.12V48Zm29.63-19.57c-2.28-4.64-7.14-6-11.83-6-5.55.05-11.65,2.58-11.65,8.78,0,6.75,5.67,8.38,11.82,9.11,4,.43,7,1.59,7,4.43,0,3.27-3.36,4.52-6.92,4.52s-7.14-1.47-8.48-4.78L99.93,47c2.24,5.51,7,7.4,13.12,7.4,6.71,0,12.64-2.88,12.64-9.59,0-7.18-5.85-8.81-12.12-9.59-3.62-.43-6.71-1.16-6.71-3.78,0-2.24,2-4,6.23-4,3.27,0,6.11,1.63,7.14,3.35l4.52-2.32ZM139.4,53.63h5.68V28.69h9.55V23.53H129.86v5.16h9.54V53.63Zm25.93,0V23.53H159.7v30.1Zm21.8-30.71c-10.41,0-15.48,8-15.48,15.87s4.9,15.52,15.48,15.52,15.35-7.78,15.43-15.56-5.07-15.83-15.43-15.83Zm0,5.16c7.09,0,9.93,5.68,9.84,10.75s-2.75,10.28-9.84,10.28-9.77-5.29-9.89-10.23,2.79-10.8,9.89-10.8Zm41.36,14.11L213.74,23.53h-4.6v30.1h5.67V33.33l15.83,20.34v0h3.52V23.48h-5.67V42.19Zm38.44-19.27c-10.41,0-15.48,8-15.48,15.87s4.9,15.52,15.48,15.52,15.35-7.78,15.44-15.56-5.08-15.83-15.44-15.83Zm0,5.16c7.09,0,9.93,5.68,9.85,10.75S274,49.11,266.93,49.11s-9.76-5.29-9.89-10.23,2.79-10.8,9.89-10.8Zm27.48,25.55V42.49h15.1V37.24h-15.1V29h16V23.57H288.74V53.63Zm41.07,0h5.67V28.69h9.55V23.53H325.93v5.16h9.55V53.63Zm46.4,0V23.57h-5.64V36.25H361.45V23.57h-5.68v30.1h5.68V41.5h14.79V53.67ZM412.22,48h-16.9v-6.8h16.3V36h-16.3V29h16.9v-5.5H389.69v30.1h22.53V48Zm29.24-24.51H429.63v30.1h11.83c10.53,0,15.18-7.7,15.05-15.31-.13-7.44-4.73-14.79-15.05-14.79Zm-6.19,5.37h6.19c6.53,0,9.29,4.69,9.42,9.37.13,4.91-2.58,9.89-9.42,9.89h-6.19V28.9Zm49.51,24.73H491l-13.5-30.1h-6.2l-13.5,30.1h6.15L466.5,48h15.74l2.54,5.68Zm-4.82-11H468.78l5.59-12.81L480,42.66Zm15.68-19.13h-6.75v.25L500.46,41.2V53.63h5.68V41.2l12-17.42v-.25h-6.84L503.3,36l-7.66-12.42Z"/><path class="cls-1" d="M519,75H0V71H519Zm0-71H0V0H519Z"/></g></g></svg>